<svg xmlns="http://www.w3.org/2000/svg" viewBox="0 0 64 64" width="512px" height="512px"><linearGradient id="SVGID_1_" x1="32" x2="32" y1="736.083" y2="781.676" gradientTransform="translate(0 -726)" gradientUnits="userSpaceOnUse"><stop offset="0" stop-color="#1a6dff"/><stop offset="1" stop-color="#c822ff"/></linearGradient><path fill="url(#SVGID_1_)" d="M50,56H14c-2.76,0-5-2.24-5-5V15c0-2.76,2.24-5,5-5h36c2.76,0,5,2.24,5,5v36C55,53.76,52.76,56,50,56z M14,12	c-1.65,0-3,1.35-3,3v36c0,1.65,1.35,3,3,3h36c1.65,0,3-1.35,3-3V15c0-1.65-1.35-3-3-3H14z"/><linearGradient id="SVGID_2_" x1="23.5" x2="23.5" y1="21" y2="44" gradientUnits="userSpaceOnUse"><stop offset="0" stop-color="#6dc7ff"/><stop offset="1" stop-color="#e6abff"/></linearGradient><path fill="url(#SVGID_2_)" d="M29.5,44h-8.4c-2.54,0-4.6-2.06-4.6-4.6V25.6c0-2.54,2.06-4.6,4.6-4.6h8.4c0.55,0,1,0.45,1,1v3 c0,0.55-0.45,1-1,1h-8v13h8c0.55,0,1,0.45,1,1v3C30.5,43.55,30.05,44,29.5,44z"/><linearGradient id="SVGID_3_" x1="40.5" x2="40.5" y1="21" y2="44" gradientUnits="userSpaceOnUse"><stop offset="0" stop-color="#6dc7ff"/><stop offset="1" stop-color="#e6abff"/></linearGradient><path fill="url(#SVGID_3_)" d="M47.48,32.75C47.43,26.01,41.84,26,38.5,26h-0.34c-0.24,0-0.44,0.02-0.66,0.03V22c0-0.55-0.45-1-1-1h-2 c-0.55,0-1,0.45-1,1v9h0.01v12c0,0.55,0.45,1,1,1h2c0.55,0,1-0.45,1-1V30h0c0.17-0.01,0.43-0.01,0.74-0.01 c1.68,0,2.99,0.14,3.51,0.38c1.77,0.83,1.76,2.77,1.75,2.99V43c0,0.55,0.45,1,1,1h1.98c0.55,0,1-0.44,1-0.99 C47.5,41.06,47.51,36.57,47.48,32.75z"/></svg>