<?xml version="1.0" encoding="UTF-8"?><svg version="1.1" id="Layer_1" xmlns="http://www.w3.org/2000/svg" xmlns:xlink="http://www.w3.org/1999/xlink" x="0px" y="0px" viewBox="0 0 1000 1000" style="enable-background:new 0 0 1000 1000;" xml:space="preserve" width="1000px" height="1000px">

<g>
	<g id="Layer_1_1_">
		<path d="M414.3,602.6h167.9c3,0,5.5,2.5,5.5,5.5l0,0c0,3-2.5,5.5-5.5,5.5H414.3c-3,0-5.5-2.5-5.5-5.5l0,0
			C408.8,605,411.3,602.6,414.3,602.6z" style="opacity:0.32;fill:#1C1C1C;enable-background:new    ;"/>
		<path d="M347.7,644.5h351.8c3,0,5.5,2.5,5.5,5.5l0,0c0,3-2.5,5.5-5.5,5.5H347.7c-3,0-5.5-2.5-5.5-5.5l0,0
			C342.2,647,344.7,644.5,347.7,644.5z" style="opacity:0.32;fill:#1C1C1C;enable-background:new    ;"/>
		<path d="M337.9,301.1H658c8.9,0,16.2,7.3,16.2,16.2c0,0,0,0,0,0v187.8l0,0h-352l0,0V316.7
			C322.2,308.1,329.2,301.1,337.9,301.1z" style="fill:#383939;"/>
		<path d="M668.2,316.1v174c0,5-4,9-9,9h-322c-5,0-9-4-9-9v-174c0-5,4-9,9-9h322C664.2,307.1,668.2,311.1,668.2,316.1z" style="fill:#3A3A3A;"/>
		<g>
			<path d="M674.2,508.1h-352c-1.7,0-3-1.3-3-3V316.7c0-10.3,8.4-18.7,18.7-18.7h0H658c10.6,0,19.2,8.6,19.2,19.2v187.8
				C677.2,506.7,675.9,508.1,674.2,508.1z M325.2,502.1h346V317.3c0-7.3-5.9-13.2-13.2-13.2H337.9h0c-7,0-12.7,5.7-12.7,12.7V502.1z
				" style="fill:#383939;"/>
		</g>
		<rect x="342.2" y="321.1" width="312" height="164" style="fill:#4F4F4F;"/>
		<path d="M322.2,505.1h352l0,0v31.7c0,9-7.3,16.3-16.3,16.3H338c-8.7,0-15.8-7.1-15.8-15.8L322.2,505.1L322.2,505.1z" style="fill:#D4E8DC;"/>
		<path d="M666.2,508.3v28.4c0,4.6-3.7,8.3-8.3,8.3H338c-4.3,0-7.8-3.5-7.8-7.8v-28.9l0,0H666.2L666.2,508.3z" style="fill:#EBF2EE;"/>
		<g>
			<path d="M657.9,556.1H338c-10.4,0-18.8-8.4-18.8-18.8v-32.1c0,0,0-0.1,0-0.1c0-1.7,1.3-3,3-3h352c1.7,0,3,1.3,3,3
				v31.7C677.2,547.4,668.6,556.1,657.9,556.1z M325.2,508.1v29.2c0,7.1,5.7,12.8,12.8,12.8h319.9c7.4,0,13.3-6,13.3-13.3v-28.7
				H325.2z" style="fill:#383939;"/>
		</g>
		<polygon points="551.2,589.1 445.2,589.1 460.9,553.1 535.5,553.1 		" style="fill:#CAD8D0;"/>
		<polygon points="542.5,569.1 535.5,553.1 460.9,553.1 453.9,569.1 		" style="fill:#A1ADA6;"/>
		<g>
			<path d="M551.2,592.1h-106c-1,0-2-0.5-2.5-1.4c-0.6-0.8-0.6-1.9-0.2-2.8l15.7-36c0.5-1.1,1.6-1.8,2.8-1.8h74.6
				c1.2,0,2.3,0.7,2.8,1.8l15.7,36c0.4,0.9,0.3,2-0.2,2.8C553.2,591.5,552.2,592.1,551.2,592.1z M449.8,586.1h96.8l-13.1-30h-70.7
				L449.8,586.1z" style="fill:#383939;"/>
		</g>
		<path d="M571.2,605.1h-146l1.5-5.3c1.9-6.4,7.8-10.8,14.5-10.7h114c6.7-0.1,12.6,4.3,14.5,10.7L571.2,605.1z" style="fill:#DAEDE2;"/>
		<g>
			<path d="M571.2,608.1h-146c-0.9,0-1.8-0.4-2.4-1.2c-0.6-0.7-0.8-1.7-0.5-2.6l1.5-5.3c2.3-7.7,9.5-13,17.5-12.9h113.9
				c8-0.1,15.2,5.2,17.4,12.9l1.5,5.3c0.3,0.9,0.1,1.9-0.5,2.6C573.1,607.6,572.2,608.1,571.2,608.1z M429.2,602.1h138.1l-0.4-1.5
				c-1.5-5-6.2-8.5-11.5-8.5c0,0-0.1,0-0.1,0h-114c-5.4-0.1-10.2,3.5-11.7,8.6L429.2,602.1z" style="fill:#383939;"/>
		</g>
		<path d="M621.8,646H368.1c-3.7,0-6.8-3-6.8-6.7l0,0c0-3.7,3-6.7,6.8-6.7h253.7c3.7,0,6.8,3,6.8,6.7l0,0
			C628.5,643,625.5,646,621.8,646z" style="fill:#DAEDE2;"/>
		<g>
			<path d="M621.8,649H368.1c-5.4,0-9.8-4.4-9.8-9.8s4.4-9.7,9.8-9.7h253.7c5.4,0,9.8,4.4,9.8,9.7S627.1,649,621.8,649z
				 M368.1,635.5c-2.1,0-3.8,1.7-3.8,3.7s1.7,3.8,3.8,3.8h253.7c2.1,0,3.8-1.7,3.8-3.8s-1.7-3.7-3.8-3.7H368.1z" style="fill:#383939;"/>
		</g>
		<path d="M567.9,632.5h-122l0,0v-4c0-3.3,2.7-6,6-6h110c3.3,0,6,2.7,6,6L567.9,632.5L567.9,632.5z" style="fill:#383939;"/>
		<path d="M442.9,632.5h-21.2l0,0v-4c0-3.3,2.7-6,6-6h9.2c3.3,0,6,2.7,6,6V632.5L442.9,632.5z" style="fill:#383939;"/>
		<path d="M418.3,632.5H397l0,0v-4c0-3.3,2.7-6,6-6h9.2c3.3,0,6,2.7,6,6V632.5L418.3,632.5z" style="fill:#383939;"/>
		<path d="M617.5,632.5h-21.2l0,0v-4c0-3.3,2.7-6,6-6h9.2c3.3,0,6,2.7,6,6V632.5L617.5,632.5z" style="fill:#383939;"/>
		<path d="M592.8,632.5h-21.2l0,0v-4c0-3.3,2.7-6,6-6h9.2c3.3,0,6,2.7,6,6V632.5L592.8,632.5z" style="fill:#383939;"/>
		<path d="M393.6,632.5h-21.2l0,0v-4c0-3.3,2.7-6,6-6h9.2c3.3,0,6,2.7,6,6V632.5L393.6,632.5z" style="fill:#383939;"/>
		<path d="M688.7,646c-0.1-7.6-8.4-15.2-23.1-15.2s-23,7.6-23.1,15.2H688.7z" style="fill:#DAEDE2;"/>
		<g>
			<path d="M688.7,649h-46.1c-0.8,0-1.6-0.3-2.1-0.9c-0.6-0.6-0.9-1.3-0.9-2.1c0.1-11.8,13.5-18.2,26.1-18.2
				c12.6,0,26,6.4,26.1,18.2c0,0.8-0.3,1.6-0.9,2.1C690.2,648.7,689.5,649,688.7,649z M646.2,643H685c-2-4.9-8.7-9.2-19.4-9.2
				C654.8,633.8,648.2,638.1,646.2,643z" style="fill:#383939;"/>
		</g>
		<path d="M512.4,526.6c-4.5,0-8.4-3.4-9-7.9c-0.1,0-0.1,0-0.2,0c-5.7,0-10.4,4.6-10.4,10.3c0,5.7,4.6,10.4,10.3,10.4
			s10.4-4.6,10.4-10.3c0-0.9-0.1-1.7-0.3-2.6C512.9,526.6,512.7,526.6,512.4,526.6z" style="fill:#383939;"/>
		<path d="M509.1,401.5c-2.9,0-5.4-2.1-5.7-5c0,0-0.1,0-0.1,0c-3.7,0-6.6,2.9-6.7,6.6c0,3.7,2.9,6.6,6.6,6.7
			c3.7,0,6.6-2.9,6.7-6.6c0-0.6-0.1-1.1-0.2-1.7C509.4,401.5,509.3,401.5,509.1,401.5z" style="fill:#E7F7F7;"/>
		<polygon points="377.6,485.1 415.8,485.1 499.4,321.1 461.2,321.1 		" style="opacity:0.16;fill:#C2D3C9;enable-background:new    ;"/>
		<polygon points="446.7,485.1 530.3,321.1 516,321.1 432.4,485.1 		" style="opacity:0.16;fill:#C2D3C9;enable-background:new    ;"/>
		<g style="opacity:0.38;">
			<path d="M521.5,428h-40.2c-0.8,0-1.5-0.7-1.5-1.5s0.7-1.5,1.5-1.5h40.2c0.8,0,1.5,0.7,1.5,1.5S522.3,428,521.5,428z
				" style="fill:#C2D3C9;"/>
		</g>
		<path d="M495.2,425h-13.9c-0.8,0-1.5,0.7-1.5,1.5s0.7,1.5,1.5,1.5h13.9V425z" style="fill:#C2D3C9;"/>
	</g>
</g>
</svg>